<?xml version="1.0" standalone="no"?>
<!DOCTYPE svg PUBLIC "-//W3C//DTD SVG 20010904//EN"
 "http://www.w3.org/TR/2001/REC-SVG-20010904/DTD/svg10.dtd">
<svg version="1.0" xmlns="http://www.w3.org/2000/svg"
 width="471.000000pt" height="478.000000pt" viewBox="0 0 471.000000 478.000000"
 preserveAspectRatio="xMidYMid meet">

<g transform="translate(0.000000,478.000000) scale(0.100000,-0.100000)"
fill="#000000" stroke="none">
<path d="M855 4750 c-121 -22 -213 -71 -250 -134 -42 -71 -36 -90 63 -218 399
-516 704 -972 870 -1304 23 -47 54 -92 72 -105 17 -13 43 -34 58 -46 l27 -21
-26 -29 c-50 -53 -62 -89 -55 -167 5 -53 3 -76 -8 -91 -30 -44 -66 -168 -72
-248 -4 -65 -1 -99 15 -162 34 -129 88 -213 224 -349 81 -80 125 -133 139
-165 27 -61 113 -270 144 -351 15 -36 34 -72 45 -81 16 -15 130 -43 169 -42 8
0 20 -4 27 -9 14 -12 360 -35 369 -25 4 4 -9 24 -29 46 -20 22 -45 57 -55 78
-45 88 -113 287 -127 370 l-6 41 71 38 c75 39 123 87 140 140 11 34 14 25 -76
222 -31 69 -32 75 -18 98 14 21 15 37 4 131 -6 60 -20 160 -31 223 -25 153
-25 155 12 170 17 7 37 24 46 37 8 12 21 23 28 23 17 0 117 -153 148 -224 l23
-56 82 61 c79 59 102 66 102 31 1 -30 66 -237 75 -237 5 0 24 21 43 48 24 33
36 63 41 100 4 39 10 53 24 55 87 17 252 -131 328 -293 46 -99 54 -162 42
-328 -6 -80 -14 -151 -18 -157 -4 -7 -28 8 -64 39 -55 48 -191 134 -199 126
-3 -2 23 -32 56 -67 113 -117 191 -238 211 -329 13 -57 5 -66 -30 -33 -16 15
-31 25 -34 22 -3 -2 3 -29 13 -59 11 -30 22 -68 25 -84 6 -34 -8 -67 -20 -49
-50 70 -211 224 -234 224 -4 0 8 -34 27 -75 30 -64 36 -90 39 -164 4 -72 2
-90 -10 -95 -9 -3 -15 0 -15 9 0 34 -186 279 -284 375 -47 46 -56 45 -32 -2
34 -66 79 -207 84 -264 4 -58 3 -64 -23 -90 l-28 -28 -21 27 c-12 15 -51 77
-85 137 -35 61 -67 112 -70 114 -4 3 3 -35 16 -82 12 -48 22 -104 22 -125 1
-63 -36 -115 -71 -101 -7 2 -33 33 -58 69 -25 35 -46 62 -48 60 -5 -5 28 -159
36 -166 11 -10 81 -18 84 -10 2 5 48 11 103 14 55 3 108 9 118 12 10 4 17 3
17 -4 0 -6 5 -11 11 -11 5 0 8 4 5 9 -3 5 8 11 25 13 22 3 29 1 25 -9 -3 -7
-1 -13 4 -13 6 0 10 -7 10 -15 0 -8 -7 -15 -16 -15 -8 0 -12 5 -9 10 4 6 -5
10 -21 10 -22 0 -25 -2 -14 -15 7 -8 19 -15 26 -15 8 0 14 -6 14 -12 0 -10 2
-10 9 0 6 10 10 10 21 -3 11 -13 11 -16 0 -13 -7 2 -15 -3 -18 -11 -2 -8 0
-11 6 -7 6 3 14 1 18 -6 4 -7 4 -10 -1 -6 -4 4 -14 3 -22 -4 -11 -9 -15 -7
-20 10 -6 24 -8 24 -37 13 -18 -7 -17 -9 12 -26 18 -11 32 -23 32 -28 0 -5 7
-15 15 -24 12 -12 32 -13 105 -8 256 17 416 50 625 127 138 51 325 137 325
150 0 4 8 8 18 8 23 1 70 45 123 116 24 33 46 61 49 64 15 14 115 188 158 275
108 218 200 527 190 642 -3 37 -4 37 -52 -62 -96 -197 -241 -391 -402 -540
-54 -50 -115 -107 -136 -128 -21 -20 -38 -34 -38 -31 0 3 -17 -7 -37 -23 -21
-16 -55 -40 -76 -52 -20 -12 -37 -27 -37 -32 0 -5 -5 -9 -10 -9 -6 0 -58 -27
-117 -60 -74 -42 -108 -57 -113 -49 -4 6 -11 35 -14 63 -9 72 -45 240 -60 284
-11 30 -11 50 0 112 53 302 -56 583 -297 767 -41 31 -48 42 -54 82 -4 25 -15
61 -26 79 -10 18 -19 35 -19 38 0 2 24 4 53 4 82 0 91 6 125 73 64 131 90 251
57 263 -10 4 -15 20 -15 50 0 42 2 45 57 81 31 21 65 50 76 64 17 24 18 29 4
55 -8 16 -29 42 -46 58 -28 27 -31 36 -31 91 0 121 -40 208 -136 293 -195 174
-547 176 -720 5 -43 -42 -94 -128 -94 -158 0 -8 -16 -32 -36 -52 -60 -63 -66
-93 -29 -146 22 -34 24 -42 16 -102 -10 -83 1 -165 28 -211 21 -36 27 -100 12
-139 -7 -17 -17 -20 -72 -20 -35 0 -79 -7 -97 -14 -18 -8 -35 -12 -37 -9 -3 3
-10 31 -16 64 -13 75 -80 301 -126 424 -46 125 -167 375 -240 497 -138 233
-375 539 -456 591 -65 41 -186 88 -280 108 -86 19 -292 27 -362 14z m284 -230
c47 -5 119 -21 162 -35 88 -30 86 -27 235 -235 405 -562 628 -1031 612 -1286
l-3 -49 -72 -3 -72 -3 -45 90 c-114 226 -301 484 -505 694 -60 62 -125 114
-95 76 56 -71 163 -224 218 -312 127 -204 265 -498 233 -497 -7 1 -48 20 -92
43 l-80 42 -48 95 c-153 300 -328 563 -734 1107 -95 127 -173 236 -173 241 0
6 33 15 73 22 39 6 79 13 87 15 36 7 222 4 299 -5z m2045 -600 c98 -37 157
-106 172 -199 8 -50 -4 -66 -54 -76 -63 -12 -204 -7 -308 11 -104 18 -264 77
-264 98 0 22 57 103 88 125 100 71 242 87 366 41z m-51 -325 c95 -20 168 -55
227 -111 53 -49 56 -67 12 -60 -15 3 -52 7 -82 11 -206 23 -541 93 -556 116
-10 18 171 56 271 58 33 0 91 -6 128 -14z m-538 -306 c23 -69 14 -81 -23 -30
-39 54 -48 143 -20 209 10 24 12 19 19 -52 5 -43 16 -101 24 -127z m281 121
c80 -37 93 -40 141 -34 51 6 53 5 53 -17 l1 -24 14 26 c11 20 20 25 39 22 29
-6 36 -27 36 -105 l0 -58 -54 0 c-30 0 -88 7 -128 15 -78 17 -140 58 -185 125
-23 33 -31 90 -14 90 5 0 49 -18 97 -40z m336 -95 c21 -22 27 -24 57 -15 42
12 51 6 51 -28 0 -64 -8 -72 -66 -72 -62 0 -71 10 -74 80 -3 72 -2 72 32 35z
m-417 -15 c3 -5 1 -10 -4 -10 -6 0 -11 5 -11 10 0 6 2 10 4 10 3 0 8 -4 11
-10z m24 -51 c17 -6 31 -17 31 -25 0 -16 16 -19 25 -4 9 14 28 12 50 -3 18
-14 18 -15 -1 -66 l-19 -53 -40 7 c-73 11 -95 41 -95 126 0 32 4 34 49 18z
m214 -80 c16 -29 21 -31 56 -25 21 3 51 12 66 20 16 8 31 13 35 11 3 -2 3 -27
0 -57 l-5 -53 -49 -3 c-57 -4 -183 15 -192 29 -3 5 2 32 11 59 20 61 50 68 78
19z m267 -11 c0 -15 -48 -58 -65 -58 -10 0 -15 10 -15 33 0 19 2 36 5 38 8 9
75 -3 75 -13z m136 -10 c-4 -13 -9 -35 -12 -50 -4 -15 -15 -29 -28 -32 -32 -9
-76 -7 -76 2 0 15 96 101 114 102 4 0 5 -10 2 -22z m-560 -83 c7 -17 -27 -81
-42 -78 -13 2 -28 58 -21 77 8 20 56 21 63 1z m92 -26 c27 -33 52 -38 102 -20
25 9 58 15 73 13 32 -4 32 -14 2 -85 -15 -36 -35 -42 -35 -11 0 18 1 18 -53
-6 -50 -22 -69 -19 -109 18 -22 20 -28 22 -28 9 0 -21 -16 -30 -40 -22 -26 8
-25 15 11 74 35 56 50 62 77 30z m-345 -41 c24 -28 22 -47 -11 -99 -29 -45
-95 -109 -112 -109 -19 0 -10 20 21 47 17 16 38 41 46 57 l15 28 -35 -26 c-43
-33 -53 -33 -71 2 -8 15 -24 38 -35 51 -19 22 -20 27 -7 39 20 21 105 42 141
36 17 -3 38 -15 48 -26z m771 10 c-13 -45 -43 -96 -59 -102 -16 -6 -135 -9
-135 -3 0 1 9 20 20 42 11 22 20 47 20 56 0 23 13 27 93 28 66 1 68 0 61 -21z
m-619 -136 c49 -37 104 -86 122 -109 l32 -43 -55 -55 c-31 -30 -58 -55 -62
-55 -4 0 -24 34 -46 76 -21 41 -61 99 -88 129 l-48 53 17 36 c9 20 21 36 27
36 6 0 51 -31 101 -68z m-369 20 c32 -21 44 -90 23 -136 -7 -15 -49 -47 -108
-82 -53 -31 -113 -68 -134 -81 l-38 -24 -102 20 c-56 10 -147 27 -201 37 -89
16 -104 22 -137 54 -45 43 -58 83 -38 119 19 33 34 33 265 -3 l182 -29 113 66
c107 62 149 77 175 59z m791 -95 c28 -42 43 -81 43 -117 0 -28 -1 -28 -67 -32
-38 -2 -71 -2 -75 -1 -4 2 5 25 18 52 14 27 28 67 31 90 7 49 21 52 50 8z
m-723 -143 c20 -20 20 -63 0 -92 -13 -19 -82 -62 -99 -62 -3 0 -6 10 -6 23 -1
17 -3 15 -8 -8 -5 -25 -18 -36 -83 -69 l-77 -38 -103 12 c-57 6 -125 16 -151
21 -26 5 -64 9 -84 9 -29 0 -44 8 -79 44 -46 46 -54 74 -28 100 20 20 8 21
214 -14 l175 -29 125 58 c130 62 178 72 204 45z m34 -166 c20 -20 14 -72 -10
-95 -22 -19 -61 -43 -72 -43 -2 0 -7 8 -9 18 -4 13 -5 12 -6 -5 -1 -16 -18
-30 -70 -55 l-68 -35 -154 4 c-174 5 -221 14 -255 48 -29 29 -31 70 -5 84 16
9 283 -9 346 -23 12 -3 64 19 130 54 110 60 150 71 173 48z m30 -155 c2 -8 -6
-13 -20 -14 l-23 0 23 -11 c27 -13 29 -39 4 -61 -14 -13 -21 -14 -30 -5 -9 9
-12 8 -12 -6 0 -12 -5 -16 -15 -12 -9 3 -15 0 -15 -8 0 -7 -22 -25 -49 -39
-46 -25 -57 -27 -183 -27 -102 0 -139 3 -154 15 -12 9 -14 14 -6 15 7 0 10 5
7 10 -4 6 -15 8 -25 5 -22 -7 -38 31 -21 48 7 7 70 12 158 15 l147 4 85 44
c83 44 120 52 129 27z m-49 -175 c-31 -58 -93 -88 -157 -76 -55 10 -79 28 -38
28 45 0 119 22 156 46 45 29 54 29 39 2z m-139 -110 c47 -56 106 -145 103
-155 -3 -7 -15 -13 -29 -13 -20 0 -30 13 -64 80 -22 44 -40 84 -40 90 0 14 17
13 30 -2z m270 -137 c0 -5 -18 -25 -40 -45 -35 -32 -46 -36 -93 -36 -29 0 -62
6 -72 14 -16 12 -12 14 41 20 32 4 79 18 104 31 50 27 60 29 60 16z m604 -660
c3 -5 -3 -11 -15 -14 -16 -4 -18 -3 -8 9 13 16 16 17 23 5z m-50 -24 c17 -13
17 -14 1 -31 -17 -17 -19 -17 -39 4 -18 18 -19 22 -6 30 20 13 23 12 44 -3z
m-4 -107 c0 -5 -2 -10 -4 -10 -3 0 -8 5 -11 10 -3 6 -1 10 4 10 6 0 11 -4 11
-10z"/>
<path d="M3005 3110 c-15 -5 -7 -9 30 -12 28 -2 52 -3 54 -1 15 11 -58 23 -84
13z"/>
<path d="M2238 2802 c-53 -31 -100 -60 -104 -64 -4 -4 1 -19 10 -32 9 -14 16
-37 16 -52 0 -22 2 -25 15 -14 17 14 20 66 5 75 -18 11 -10 24 28 45 45 25 69
40 101 63 31 23 38 22 66 -9 20 -22 25 -23 25 -10 0 30 -20 56 -43 55 -12 0
-66 -26 -119 -57z"/>
<path d="M2312 2725 c0 -16 2 -22 5 -12 2 9 2 23 0 30 -3 6 -5 -1 -5 -18z"/>
<path d="M1730 2716 c0 -28 43 -43 181 -65 147 -23 193 -26 185 -12 -6 8 -57
16 -209 31 -72 7 -95 13 -123 35 -26 20 -34 22 -34 11z"/>
<path d="M2268 2707 c-3 -19 -2 -25 4 -19 6 6 8 18 6 28 -3 14 -5 12 -10 -9z"/>
<path d="M2232 2690 c0 -14 2 -19 5 -12 2 6 2 18 0 25 -3 6 -5 1 -5 -13z"/>
<path d="M2296 2589 c-55 -27 -101 -51 -104 -54 -3 -2 3 -16 12 -29 9 -14 16
-33 16 -42 0 -13 3 -14 15 -4 17 14 20 46 5 55 -20 12 -8 23 68 60 42 21 80
40 83 42 4 1 18 -7 33 -18 14 -11 26 -17 26 -12 0 16 -31 53 -43 52 -7 0 -57
-23 -111 -50z"/>
<path d="M1800 2521 c0 -17 43 -41 70 -40 21 1 21 2 5 6 -11 3 -32 14 -47 25
-16 11 -28 15 -28 9z"/>
<path d="M2321 2514 c0 -11 3 -14 6 -6 3 7 2 16 -1 19 -3 4 -6 -2 -5 -13z"/>
<path d="M2282 2500 c0 -14 2 -19 5 -12 2 6 2 18 0 25 -3 6 -5 1 -5 -13z"/>
<path d="M1930 2474 c14 -2 59 -9 100 -15 41 -6 85 -12 98 -15 12 -2 22 0 22
5 0 13 -38 19 -150 25 -52 2 -84 3 -70 0z"/>
<path d="M2345 2418 c-49 -23 -91 -43 -93 -44 -2 -1 6 -16 16 -33 17 -28 21
-30 32 -16 10 12 10 19 2 27 -20 20 -14 27 56 59 48 22 76 29 100 25 29 -4 32
-3 22 9 -18 22 -36 18 -135 -27z"/>
<path d="M1890 2351 c0 -12 39 -35 46 -28 3 2 -7 12 -21 21 -14 9 -25 12 -25
7z"/>
<path d="M2050 2317 c3 -2 43 -7 90 -11 47 -4 80 -3 73 2 -13 8 -172 17 -163
9z"/>
<path d="M2378 2255 c-24 -13 -25 -17 -15 -40 7 -14 15 -25 19 -25 15 0 19 22
7 36 -13 16 -13 16 16 32 11 6 16 11 10 11 -5 0 -22 -6 -37 -14z"/>
<path d="M2280 2180 c0 -5 7 -7 15 -4 8 4 15 8 15 10 0 2 -7 4 -15 4 -8 0 -15
-4 -15 -10z"/>
<path d="M3146 1205 c4 -8 8 -15 10 -15 2 0 4 7 4 15 0 8 -4 15 -10 15 -5 0
-7 -7 -4 -15z"/>
<path d="M1180 1850 c0 -5 5 -10 11 -10 5 0 7 5 4 10 -3 6 -8 10 -11 10 -2 0
-4 -4 -4 -10z"/>
<path d="M4658 1593 c-13 -16 -52 -53 -88 -83 -36 -30 -67 -57 -70 -60 -14
-16 -135 -102 -205 -146 -76 -49 -228 -129 -325 -172 -301 -133 -739 -202
-1127 -178 -47 3 -63 1 -63 -9 0 -7 -7 -18 -15 -25 -12 -10 -13 -16 -3 -27 7
-9 -4 -6 -27 7 -25 14 -41 18 -43 11 -2 -6 -19 -11 -39 -11 -31 0 -33 2 -19
15 8 8 19 15 25 15 6 0 11 8 11 17 0 14 -3 14 -22 -4 -13 -11 -31 -23 -41 -26
-17 -6 -17 -8 -3 -22 11 -12 25 -14 52 -9 33 6 36 5 31 -10 -4 -10 -7 -20 -7
-22 0 -2 -4 -4 -10 -4 -5 0 -7 7 -4 15 4 8 1 15 -5 15 -7 0 -14 -7 -17 -15 -4
-8 -11 -12 -18 -8 -7 5 -7 2 1 -8 8 -9 9 -20 3 -29 -9 -14 -11 -13 -14 9 -2
18 -16 24 -16 8 0 -10 -5 -17 -11 -17 -7 0 -9 10 -7 25 3 14 1 25 -3 25 -5 0
-9 -4 -9 -10 0 -5 -6 -10 -14 -10 -21 0 -26 -25 -7 -41 26 -22 196 -78 256
-84 11 -1 27 -5 35 -9 8 -3 33 -8 55 -10 22 -3 78 -10 125 -15 191 -24 503 -9
690 33 36 8 90 20 120 26 30 7 69 19 85 28 39 19 145 92 165 113 8 8 47 41 85
72 98 79 325 319 325 345 0 4 14 21 30 39 17 18 30 35 30 39 0 4 12 23 28 43
50 66 121 191 108 191 -2 0 -15 -12 -28 -27z m-1828 -657 c0 -2 -7 -7 -16 -10
-8 -3 -12 -2 -9 4 6 10 25 14 25 6z m-50 -116 c0 -5 -5 -10 -11 -10 -5 0 -7 5
-4 10 3 6 8 10 11 10 2 0 4 -4 4 -10z m-93 -26 c-3 -3 -12 -4 -19 -1 -8 3 -5
6 6 6 11 1 17 -2 13 -5z"/>
<path d="M775 1570 c-3 -5 -1 -10 4 -10 6 0 11 5 11 10 0 6 -2 10 -4 10 -3 0
-8 -4 -11 -10z"/>
<path d="M356 1557 c3 -10 9 -15 12 -12 3 3 0 11 -7 18 -10 9 -11 8 -5 -6z"/>
<path d="M913 1548 c-13 -6 -23 -14 -23 -19 0 -12 38 2 44 17 3 8 4 14 3 13
-1 0 -12 -5 -24 -11z"/>
<path d="M540 1540 c0 -5 5 -10 11 -10 5 0 7 5 4 10 -3 6 -8 10 -11 10 -2 0
-4 -4 -4 -10z"/>
<path d="M415 1530 c3 -5 8 -10 11 -10 2 0 4 5 4 10 0 6 -5 10 -11 10 -5 0 -7
-4 -4 -10z"/>
<path d="M510 1533 c0 -15 39 -43 60 -43 21 0 35 -16 21 -24 -5 -4 -12 -2 -16
4 -3 5 -11 10 -17 10 -7 0 -7 -4 1 -13 6 -8 9 -16 6 -18 -2 -3 7 -6 22 -7 19
-1 24 2 19 13 -3 8 -2 15 3 15 16 0 20 -13 9 -34 -10 -20 -10 -20 7 -6 10 8
19 13 19 11 2 -8 46 11 46 20 0 13 -18 11 -23 -3 -3 -10 -9 -8 -24 5 -11 9
-25 17 -32 17 -7 0 -11 6 -8 14 3 7 0 13 -6 13 -36 -1 -57 5 -71 19 -9 8 -16
12 -16 7z"/>
<path d="M350 1515 c0 -7 30 -13 34 -7 3 4 -4 9 -15 9 -10 1 -19 0 -19 -2z"/>
<path d="M733 1499 c14 -8 22 -8 30 0 8 8 3 11 -18 11 -26 -1 -28 -2 -12 -11z"/>
<path d="M1000 1506 c0 -2 9 -6 20 -9 11 -3 18 -1 14 4 -5 9 -34 13 -34 5z"/>
<path d="M1060 1501 c0 -17 18 -21 24 -6 3 9 0 15 -9 15 -8 0 -15 -4 -15 -9z"/>
<path d="M444 1478 c-5 -8 18 -12 45 -8 13 1 13 -1 2 -14 -8 -9 -9 -16 -3 -16
8 0 22 22 22 35 0 7 -61 11 -66 3z"/>
<path d="M717 1483 c-10 -9 -8 -33 2 -33 5 0 11 9 14 20 5 20 -3 26 -16 13z"/>
<path d="M945 1473 c5 -18 3 -22 -8 -17 -8 3 -18 1 -22 -5 -7 -12 24 -15 42
-3 8 5 7 12 -4 27 -15 20 -15 20 -8 -2z"/>
<path d="M1150 1475 c-18 -21 -5 -31 15 -12 8 9 11 18 6 21 -5 3 -14 -1 -21
-9z"/>
<path d="M398 1475 c-4 -4 -4 -13 -1 -21 3 -8 -1 -14 -11 -14 -20 0 -20 -11 1
-71 10 -27 24 -49 31 -49 7 0 10 -5 6 -11 -8 -13 2 -34 76 -158 30 -51 60
-102 66 -113 6 -10 21 -30 32 -43 11 -13 29 -36 39 -52 9 -15 20 -30 23 -33 3
-3 34 -39 70 -80 72 -83 65 -76 176 -176 143 -129 294 -235 461 -325 54 -28
103 -55 108 -59 42 -31 329 -131 487 -169 383 -93 873 -89 1233 9 44 12 94 26
110 30 63 16 140 44 150 53 6 6 0 7 -18 3 -16 -4 -106 -7 -200 -7 -320 0 -580
50 -882 169 -96 37 -263 121 -336 168 -24 16 -51 33 -60 39 -153 95 -340 263
-479 431 -30 36 -59 71 -65 77 -28 33 -148 222 -157 248 -5 16 -19 34 -29 40
-10 5 -18 13 -16 17 1 4 -3 8 -8 10 -6 2 -14 13 -18 25 l-8 21 -12 -24 c-7
-13 -19 -25 -27 -27 -13 -4 -13 -3 0 6 14 10 7 16 -14 12 -4 -1 -19 5 -32 13
-25 17 -54 12 -54 -10 0 -8 -5 -14 -11 -14 -7 0 -9 10 -7 25 3 14 1 25 -5 25
-5 0 -7 9 -4 21 4 15 2 19 -10 15 -8 -3 -17 -6 -20 -6 -3 0 -1 -6 5 -13 14
-17 19 -61 7 -65 -5 -2 -18 -8 -27 -13 -11 -6 -18 -5 -20 3 -3 8 -10 7 -26 -4
-12 -8 -19 -18 -15 -21 3 -4 0 -7 -9 -7 -8 0 -15 7 -15 15 0 8 8 15 18 15 10
0 22 6 26 14 4 8 17 14 28 13 12 -1 20 5 22 18 4 19 3 19 -8 1 -9 -15 -13 -16
-20 -5 -8 12 -10 12 -18 0 -5 -8 -14 -10 -22 -6 -9 6 -11 3 -5 -10 5 -13 3
-15 -6 -8 -7 5 -24 10 -37 11 -13 0 -28 7 -32 14 -4 7 -11 9 -15 5 -4 -3 -1
-13 5 -21 7 -8 8 -17 3 -20 -6 -3 -17 5 -26 19 -18 27 -56 34 -56 10 0 -17
-16 -20 -25 -5 -3 6 -19 10 -34 10 -21 0 -30 -6 -35 -22 -6 -21 -8 -21 -19 -7
-6 9 -20 15 -29 13 -11 -1 -15 3 -11 13 5 12 1 14 -17 8 -15 -5 -26 -2 -31 6
-8 12 -10 12 -18 0 -5 -8 -16 -11 -30 -6 -15 4 -21 3 -19 -6 2 -7 -6 -15 -17
-17 -17 -4 -18 -2 -6 12 19 23 -1 20 -27 -4 -18 -17 -22 -18 -22 -5 0 10 -5
13 -12 9 -7 -5 -8 -3 -4 5 5 7 10 10 13 7 8 -8 43 13 43 26 0 7 -5 7 -14 -1
-12 -10 -15 -8 -18 9 -2 12 -6 19 -10 15z m377 -65 c3 -6 -1 -7 -9 -4 -18 7
-21 14 -7 14 6 0 13 -4 16 -10z m-262 -20 c3 -11 1 -23 -4 -26 -5 -3 -9 -1 -9
5 0 5 -3 16 -6 25 -3 9 -2 16 4 16 5 0 12 -9 15 -20z m47 10 c0 -5 -4 -10 -10
-10 -5 0 -10 5 -10 10 0 6 5 10 10 10 6 0 10 -4 10 -10z m144 -8 c3 -9 15 -23
27 -30 18 -11 23 -11 30 -1 4 7 5 17 3 21 -10 15 6 8 26 -12 26 -26 26 -26
-12 -25 -51 2 -96 29 -98 58 0 15 19 7 24 -11z m363 3 c0 -8 -4 -12 -9 -9 -4
3 -8 9 -8 15 0 5 4 9 8 9 5 0 9 -7 9 -15z m-592 -29 c-4 -35 -21 -61 -29 -47
-4 6 -3 11 2 11 6 0 13 7 16 16 4 12 1 14 -14 9 -28 -9 -26 13 3 25 12 5 23 9
23 9 1 1 0 -10 -1 -23z m108 1 c4 -10 -2 -13 -21 -9 -24 5 -25 6 -7 13 11 4
21 8 21 8 1 1 4 -5 7 -12z m287 3 c0 -5 -5 -10 -11 -10 -6 0 -8 -7 -5 -16 6
-15 4 -15 -10 -3 -10 8 -12 15 -5 17 6 2 9 8 5 13 -3 5 2 9 10 9 9 0 16 -4 16
-10z m184 -6 c9 -24 7 -27 -9 -10 -17 17 -19 26 -6 26 5 0 12 -7 15 -16z m146
6 c0 -5 -5 -10 -11 -10 -5 0 -7 5 -4 10 3 6 8 10 11 10 2 0 4 -4 4 -10z m-524
-15 c-22 -17 -60 -20 -51 -5 4 6 10 8 15 5 5 -3 11 -1 15 5 3 5 14 10 23 10
15 -1 15 -2 -2 -15z m449 5 c3 -5 -3 -10 -14 -10 -12 0 -21 5 -21 10 0 6 6 10
14 10 8 0 18 -4 21 -10z m40 -20 c3 -5 1 -10 -4 -10 -6 0 -11 5 -11 10 0 6 2
10 4 10 3 0 8 -4 11 -10z m70 0 c-3 -5 -11 -10 -16 -10 -6 0 -7 5 -4 10 3 6
11 10 16 10 6 0 7 -4 4 -10z m-296 -9 c7 -5 9 -11 5 -14 -5 -3 -15 1 -22 9
-14 16 -5 18 17 5z m-289 -17 c0 -8 -5 -12 -10 -9 -6 4 -8 11 -5 16 9 14 15
11 15 -7z m57 10 c-3 -3 -12 -4 -19 -1 -8 3 -5 6 6 6 11 1 17 -2 13 -5z m-202
-14 c3 -5 2 -10 -4 -10 -5 0 -13 5 -16 10 -3 6 -2 10 4 10 5 0 13 -4 16 -10z
m105 0 c-19 -13 -30 -13 -30 0 0 6 10 10 23 10 18 0 19 -2 7 -10z m390 -10 c0
-5 -4 -10 -10 -10 -5 0 -10 5 -10 10 0 6 5 10 10 10 6 0 10 -4 10 -10z m145
-10 c3 -5 2 -10 -4 -10 -5 0 -13 5 -16 10 -3 6 -2 10 4 10 5 0 13 -4 16 -10z
m-682 -20 c3 -11 1 -20 -4 -20 -5 0 -9 9 -9 20 0 11 2 20 4 20 2 0 6 -9 9 -20z
m227 -16 c0 -2 -7 -4 -15 -4 -8 0 -15 4 -15 10 0 5 7 7 15 4 8 -4 15 -8 15
-10z m527 10 c-3 -3 -12 -4 -19 -1 -8 3 -5 6 6 6 11 1 17 -2 13 -5z m-430 -70
c-3 -3 -12 -4 -19 -1 -8 3 -5 6 6 6 11 1 17 -2 13 -5z m460 -30 c-3 -3 -12 -4
-19 -1 -8 3 -5 6 6 6 11 1 17 -2 13 -5z m-407 -74 c0 -5 -5 -10 -11 -10 -5 0
-7 5 -4 10 3 6 8 10 11 10 2 0 4 -4 4 -10z"/>
<path d="M771 1473 c-1 -6 -9 -13 -18 -15 -11 -2 -14 -6 -8 -10 16 -10 38 7
32 23 -3 9 -6 9 -6 2z"/>
<path d="M820 1466 c0 -8 -6 -16 -12 -19 -7 -2 -3 -2 10 0 15 2 22 -2 22 -12
0 -8 4 -15 10 -15 11 0 1 30 -17 48 -11 11 -13 11 -13 -2z"/>
<path d="M1030 1472 c0 -13 38 -23 46 -11 3 5 1 9 -5 9 -5 0 -16 3 -25 6 -9 3
-16 2 -16 -4z"/>
<path d="M870 1455 c0 -8 5 -15 11 -15 5 0 8 4 4 9 -3 5 3 12 12 14 14 4 13 5
-4 6 -14 1 -23 -5 -23 -14z"/>
<path d="M1120 1430 c0 -5 4 -10 9 -10 6 0 13 5 16 10 3 6 -1 10 -9 10 -9 0
-16 -4 -16 -10z"/>
<path d="M2970 1188 c0 -11 12 -10 30 2 12 7 10 9 -8 7 -12 0 -22 -5 -22 -9z"/>
<path d="M2972 1144 c10 -10 20 -16 22 -13 3 3 -5 11 -17 18 -21 13 -21 12 -5
-5z"/>
<path d="M3020 1115 c0 -8 4 -15 10 -15 5 0 7 7 4 15 -4 8 -8 15 -10 15 -2 0
-4 -7 -4 -15z"/>
<path d="M2920 1096 c0 -2 7 -7 16 -10 8 -3 12 -2 9 4 -6 10 -25 14 -25 6z"/>
<path d="M3063 1083 c-7 -3 -13 -12 -13 -21 0 -12 10 -18 31 -19 l32 -2 -19
22 c-10 12 -19 23 -19 23 0 1 -6 -1 -12 -3z"/>
<path d="M3016 1064 c-8 -22 -8 -24 7 -24 7 0 13 9 14 20 2 24 -12 27 -21 4z"/>
<path d="M1637 1033 c-4 -3 -7 -11 -7 -17 0 -6 5 -5 12 2 6 6 9 14 7 17 -3 3
-9 2 -12 -2z"/>
<path d="M2593 975 c0 -7 6 -11 14 -8 7 3 13 6 13 8 0 2 -6 5 -13 8 -8 3 -14
-1 -14 -8z"/>
<path d="M2625 960 c-3 -5 -1 -10 4 -10 6 0 11 5 11 10 0 6 -2 10 -4 10 -3 0
-8 -4 -11 -10z"/>
<path d="M2713 962 c-32 -5 -29 -22 3 -22 23 0 25 -2 14 -16 -12 -13 -10 -14
13 -3 15 7 27 15 27 18 0 12 -36 26 -57 23z"/>
<path d="M2515 950 c3 -5 8 -10 11 -10 2 0 4 5 4 10 0 6 -5 10 -11 10 -5 0 -7
-4 -4 -10z"/>
<path d="M2548 953 c7 -3 16 -2 19 1 4 3 -2 6 -13 5 -11 0 -14 -3 -6 -6z"/>
<path d="M2560 910 c0 -5 5 -10 11 -10 5 0 7 5 4 10 -3 6 -8 10 -11 10 -2 0
-4 -4 -4 -10z"/>
<path d="M2047 896 c-5 -14 -3 -23 8 -28 20 -12 19 -21 -8 -50 l-22 -24 -25
23 c-26 25 -58 38 -67 29 -11 -10 18 -35 45 -38 15 -2 26 -9 25 -15 -2 -7 4
-13 12 -13 8 0 15 -7 15 -15 0 -13 -3 -14 -22 -2 -23 14 -53 15 -83 3 -14 -5
-15 -9 -5 -21 6 -8 9 -18 6 -23 -8 -13 20 -42 74 -76 25 -16 57 -37 72 -48 15
-10 31 -18 37 -18 5 0 11 -4 13 -9 2 -7 155 -83 283 -142 41 -18 262 -87 315
-98 30 -6 91 -18 135 -27 98 -21 249 -23 330 -6 110 24 345 103 490 165 39 16
79 33 90 37 85 32 115 45 150 63 22 11 47 25 55 32 8 7 36 22 61 35 42 20 87
58 130 108 8 10 26 26 39 35 31 22 22 29 -15 12 -49 -21 -156 -61 -220 -80
-33 -10 -70 -25 -82 -32 -12 -8 -27 -12 -33 -8 -6 3 -25 2 -43 -4 -34 -12
-170 -36 -252 -46 -27 -3 -70 -8 -95 -11 -81 -10 -393 -6 -480 5 -177 24 -356
63 -470 102 -108 36 -176 63 -185 70 -5 5 -15 9 -22 9 -8 0 -32 9 -54 19 -22
11 -47 17 -55 14 -8 -3 -14 0 -14 6 0 18 -60 44 -74 32 -16 -13 -43 6 -48 34
-4 20 -4 20 -11 1z m-77 -66 c8 -5 11 -10 5 -10 -5 0 -17 5 -25 10 -8 5 -10
10 -5 10 6 0 17 -5 25 -10z m180 -1 c0 -4 -4 -11 -10 -14 -5 -3 -10 -1 -10 5
0 6 -12 8 -30 5 -18 -3 -30 -1 -30 5 0 6 17 10 40 8 22 -1 40 -5 40 -9z m-37
-26 c-7 -2 -19 -2 -25 0 -7 3 -2 5 12 5 14 0 19 -2 13 -5z m-6 -28 c0 -8 -9
-15 -19 -15 -10 0 -18 5 -18 11 0 5 4 8 9 4 5 -3 12 -1 16 5 9 14 12 13 12 -5z
m-153 -31 c3 -8 2 -12 -4 -9 -6 3 -10 10 -10 16 0 14 7 11 14 -7z m376 12 c0
-3 -4 -8 -10 -11 -5 -3 -10 -1 -10 4 0 6 5 11 10 11 6 0 10 -2 10 -4z"/>
<path d="M2000 880 c0 -5 4 -10 9 -10 6 0 13 5 16 10 3 6 -1 10 -9 10 -9 0
-16 -4 -16 -10z"/>
<path d="M1840 876 c0 -2 7 -9 15 -16 12 -10 15 -10 15 4 0 9 -7 16 -15 16 -8
0 -15 -2 -15 -4z"/>
<path d="M2440 858 c0 -4 6 -9 13 -9 6 -1 22 -3 34 -4 12 -1 20 1 18 5 -7 11
-65 18 -65 8z"/>
<path d="M1765 850 c-3 -5 1 -10 10 -10 9 0 13 5 10 10 -3 6 -8 10 -10 10 -2
0 -7 -4 -10 -10z"/>
<path d="M1875 840 c-3 -5 -1 -10 4 -10 6 0 11 5 11 10 0 6 -2 10 -4 10 -3 0
-8 -4 -11 -10z"/>
<path d="M1864 805 c3 -8 1 -15 -3 -15 -14 0 -6 -30 10 -41 20 -13 29 -11 29
5 0 8 9 21 20 29 19 14 20 15 3 21 -10 4 -19 2 -21 -3 -2 -6 -8 -11 -14 -11
-6 0 -8 7 -4 15 3 9 0 15 -10 15 -10 0 -14 -6 -10 -15z"/>
</g>
</svg>
